<?xml version="1.0" encoding="utf-8"?>
<svg xmlns="http://www.w3.org/2000/svg" width="64" height="64" viewBox="0 0 64 64" role="img" aria-label="D">
  <defs>
    <!-- horizontal stripe pattern -->
    <pattern id="stripes" patternUnits="userSpaceOnUse" width="6" height="6">
      <rect width="6" height="6" fill="#ff2a2a"/>
      <rect y="3" width="6" height="1.6" fill="#7b0000"/>
    </pattern>
  </defs>

  <!-- Bold slab-serif "D" with three left spikes (top, middle, bottom).
       Compound path: outer shape then inner cut-out (even-odd). -->
  <path fill="url(#stripes)" stroke="#d10b0b" stroke-width="1.6" fill-rule="evenodd"
    d="
      M8 6
      H30
      C42 6 52 18 52 32
      C52 46 42 58 30 58
      H8
      L4 52
      L8 48
      L8 36
      L4 32
      L8 28
      L8 16
      L4 12
      L8 6
      Z

      M18 18
      H30
      C36 18 40 24 40 32
      C40 40 36 46 30 46
      H18
      Z
    "/>

  <!-- subtle glossy overlay so it reads at small sizes -->
  <path d="
      M8 6 H30 C42 6 52 18 52 32 C52 46 42 58 30 58 H8 L4 52 L8 48 L8 36 L4 32 L8 28 L8 16 L4 12 L8 6 Z
      M18 18 H30 C36 18 40 24 40 32 C40 40 36 46 30 46 H18 Z
    "
    fill="white" fill-opacity="0.06" fill-rule="evenodd" />

</svg>
